<svg width="59" height="37" viewBox="0 0 59 37" fill="none" xmlns="http://www.w3.org/2000/svg">
<path d="M2.04642 24.7886C6.61329 34.3616 16.7671 36.7107 18.1158 37.0001L16.5723 33.3056C15.486 30.7065 16.6945 27.6898 19.3078 26.6174C24.4261 24.517 28.006 19.4557 27.9016 13.5746C27.7691 6.08804 21.5836 0.0216329 14.0698 5.78503e-05C6.94823 -0.0202481 1.06962 5.30753 0.252016 12.1811C-0.0880165 14.4528 -0.494272 19.4621 2.04642 24.7886Z" fill="#FFCD28"/>
<path d="M33.1421 24.7886C37.709 34.3616 47.8628 36.7107 49.2115 37.0001L47.668 33.3056C46.5817 30.7065 47.7902 27.6898 50.4035 26.6174C55.5218 24.517 59.1017 19.4557 58.9973 13.5746C58.8636 6.08804 52.6793 0.0216329 45.1642 5.78503e-05C38.0427 -0.0202481 32.1641 5.30753 31.3464 12.1811C31.0077 14.4528 30.6002 19.4621 33.1421 24.7886Z" fill="#FFCD28"/>
</svg>
